<svg xmlns="http://www.w3.org/2000/svg" viewBox="248.16 107.89 97.63 98.37"><g id="object-0" transform="matrix(1, 0, 0, 1, 2.842170943040401e-14, 0)"><circle cx="295.551" cy="162.223" r="43.81" style="paint-order: fill; fill: rgb(240, 237, 247);" transform="matrix(1.07173, 0, 0, 1.00648, -19.6325, -1.10798)"/><path fill-rule="evenodd" clip-rule="evenodd" d="M 297.019 107.89 C 270.004 107.89 248.165 129.89 248.165 157.107 C 248.165 178.863 262.158 197.279 281.57 203.797 C 283.997 204.287 284.886 202.738 284.886 201.435 C 284.886 200.294 284.806 196.383 284.806 192.308 C 271.216 195.242 268.386 186.441 268.386 186.441 C 266.202 180.737 262.966 179.271 262.966 179.271 C 258.518 176.256 263.29 176.256 263.29 176.256 C 268.224 176.582 270.813 181.308 270.813 181.308 C 275.18 188.804 282.217 186.686 285.048 185.382 C 285.452 182.204 286.747 180.004 288.122 178.782 C 277.283 177.641 265.879 173.404 265.879 154.499 C 265.879 149.121 267.819 144.721 270.893 141.299 C 270.408 140.077 268.709 135.024 271.379 128.261 C 271.379 128.261 275.504 126.957 284.805 133.313 C 288.787 132.236 292.894 131.688 297.019 131.683 C 301.144 131.683 305.349 132.254 309.232 133.313 C 318.534 126.957 322.659 128.261 322.659 128.261 C 325.329 135.024 323.629 140.077 323.144 141.299 C 326.299 144.721 328.159 149.121 328.159 154.499 C 328.159 173.404 316.755 177.559 305.835 178.782 C 307.615 180.33 309.151 183.263 309.151 187.908 C 309.151 194.508 309.071 199.805 309.071 201.434 C 309.071 202.738 309.961 204.287 312.387 203.798 C 331.799 197.278 345.792 178.863 345.792 157.107 C 345.872 129.89 323.953 107.89 297.019 107.89 Z" fill="#262F50"/></g></svg>