<svg xmlns="http://www.w3.org/2000/svg" xmlns:bx="https://boxy-svg.com" viewBox="318.88 182.51 20 20"><defs><bx:export><bx:file format="svg" excluded="true"/><bx:file format="svg" href="#_icons" path="Untitled 2.svg"/></bx:export></defs><g class="st0" id="grid_system" style="display: none;" transform="matrix(1, 0, 0, 1, 316.877, 180.513)"/><g id="_icons" transform="matrix(1, 0, 0, 1, 316.877, 180.513)" style=""><g><g><ellipse style="stroke: rgb(0, 0, 0); fill: rgb(240, 237, 247); paint-order: stroke;" cx="11.957" cy="12.19" rx="8.75" ry="8.75"/><path d="M12,2C6.5,2,2,6.5,2,12s4.5,10,10,10s10-4.5,10-10S17.5,2,12,2z M12,20c-4.4,0-8-3.6-8-8s3.6-8,8-8s8,3.6,8,8    S16.4,20,12,20z" style="fill: rgb(38, 47, 80);"/><path d="M13.7,8.3c-0.4-0.4-1-0.4-1.4,0l-3,3c-0.4,0.4-0.4,1,0,1.4l3,3c0.2,0.2,0.5,0.3,0.7,0.3s0.5-0.1,0.7-0.3    c0.4-0.4,0.4-1,0-1.4L11.4,12l2.3-2.3C14.1,9.3,14.1,8.7,13.7,8.3z" style="fill: rgb(38, 47, 80);"/></g></g></g></svg>