<?xml version="1.0" encoding="UTF-8"?>
<svg id="Layer_1" data-name="Layer 1" xmlns="http://www.w3.org/2000/svg" viewBox="0 0 157.99 134.16">
  <defs>
    <style>
      .cls-1, .cls-2 {
        fill: none;
      }

      .cls-2 {
        stroke: #C2CBEC;
        stroke-miterlimit: 10;
        stroke-width: 2px;
      }
    </style>
  </defs>
  <path fill="#C2CBEC" d="M136.65,91.55c.26,0,.46.23.41.48-.5,2.36-1.59,5.48-4.06,8.35-5.76,6.72-14.4,6.72-16.36,6.72-10.62,0-17.61-7.37-20.61-10.53-5.27-5.55-12.07-16.17-8.74-20.84h0c.13-.18.39-.22.57-.07,3.51,2.91,10.68,7.83,20.05,11.28,11.08,4.08,21.71,4.82,28.74,4.61h0Z"/>
  <path fill="#C2CBEC" d="M137.26,88.06l-.05.94c-.02.41-.37.73-.78.71-5.13-.24-12.89-.93-21.12-2.99-13.44-3.36-22.15-9.44-26.89-12.32-.63-.38-.87-.85-.16-1.06,2.22-.65,4.38-.56,11.36-.96,6.07-.35,10.87-.27,15.46-.67,10.07-.89,10.96-2.48,13.89-1.34,5.88,2.26,8.66,11.06,8.29,17.7h0Z"/>
  <path fill="#C2CBEC" d="M84.04,116.52c-.79-2.07-.56-4.13-.22-5.6-.07-29.5-.14-59-.22-88.51-.07-.37-.43-2.03-1.95-3.14-1.17-.85-2.37-.9-2.81-.9l-.04,18.41-.03,17.21v62.97s.04,0,.07,0c1.45.03,2.62,1.22,2.62,2.69s-1.17,2.65-2.62,2.69c-.02,0-.04,0-.07,0v11.81s.05,0,.07-.01c.05-.04.1-.07.14-.1.11-.13.21-.3.23-.5.31-2.69,1.74-4.48,2.45-5.38.15-.19,1.14-1.41,1.93-2.46,2.5-3.36,2.92-3.44,3.02-4.26.22-1.73-1.6-2.33-2.59-4.93h0Z"/>
  <circle fill="#C2CBEC" cx="78.78" cy="9.86" r="6.5"/>
  <path fill="#C2CBEC" d="M87.74,69.46c15.46-8.96,26.22-11.88,26.22-11.88,18.62-5.38,27-4.82,30.86-5.02.63-.03.97.71.55,1.17-4.05,4.39-7.97,7-9.68,8.11-6.25,4.06-12.19,5.8-15.01,6.5-.91.22-1.69.39-2.49.52-6.51,1.07-10.85,1.15-19.47,1.27,0,0-11,.51-11.2-.22-.04-.12,0-.22,0-.22.05-.14.18-.2.22-.22h0Z"/>
  <path fill="#C2CBEC" d="M154.29,37.42c-1.94,5.18-4.64,9.4-7.42,12.77-.12.14-.3.21-.49.19-3.27-.48-13.21.13-25.26,2.95-16.24,3.81-29.07,10.91-33.7,14.4-.24.18-.58.12-.76-.12-.02-.03-.04-.06-.05-.09C81.57,56.18,107.13.4,136.59,0c1.29-.02,11.17-.01,17.03,6.72,8.52,9.79,2.23,26.54.67,30.7h0Z"/>
  <line fill="#C2CBEC" class="cls-1" x1="87.27" y1="69.81" x2="87" y2="69.41"/>
  <path fill="#C2CBEC" d="M21.34,91.65c-.26,0-.46.23-.41.48.5,2.36,1.59,5.48,4.06,8.35,5.76,6.72,14.4,6.72,16.36,6.72,10.62,0,17.61-7.37,20.61-10.53,5.27-5.55,12.07-16.17,8.74-20.84h0c-.13-.18-.39-.22-.57-.07-3.51,2.91-10.68,7.83-20.05,11.28-11.08,4.08-21.71,4.82-28.74,4.61h0Z"/>
  <path fill="#C2CBEC" d="M20.73,88.16l.05.94c.02.41.37.73.78.71,5.13-.24,12.89-.93,21.12-2.99,13.44-3.36,22.15-9.44,26.89-12.32.63-.38.87-.85.16-1.06-2.22-.65-4.38-.56-11.36-.96-6.07-.35-10.87-.27-15.46-.67-10.07-.89-10.96-2.48-13.89-1.34-5.88,2.26-8.66,11.06-8.29,17.7h0Z"/>
  <path fill="#C2CBEC" d="M70.25,69.57c-15.46-8.96-26.22-11.88-26.22-11.88-18.62-5.38-27-4.82-30.86-5.02-.63-.03-.97.71-.55,1.17,4.05,4.39,7.97,7,9.68,8.11,6.25,4.06,12.19,5.8,15.01,6.5.91.22,1.69.39,2.49.52,6.51,1.07,10.85,1.15,19.47,1.27,0,0,11,.51,11.2-.22.04-.12,0-.22,0-.22-.05-.14-.18-.2-.22-.22h0Z"/>
  <path fill="#C2CBEC" d="M3.7,37.52c1.94,5.18,4.64,9.4,7.42,12.77.12.14.3.21.49.19,3.27-.48,13.21.13,25.26,2.95,16.24,3.81,29.07,10.91,33.7,14.4.24.18.58.12.76-.12.02-.03.04-.06.05-.09C76.42,56.29,50.86.5,21.4.1c-1.29-.02-11.17-.01-17.03,6.72-8.52,9.79-2.23,26.54-.67,30.7h0Z"/>
  <line fill="#C2CBEC" class="cls-1" x1="70.99" y1="69.52" x2="70.72" y2="69.91"/>
  <polyline fill="#C2CBEC" class="cls-2" points="78.78 116.96 78.78 53.91 78.78 18.38"/>
  <path fill="#C2CBEC" d="M78.63,134.1s.05.04.08.06c.02,0,.03,0,.05,0,.03,0,.06-.01.09-.02v-11.81s-.04,0-.07,0c-1.48,0-2.69-1.2-2.69-2.69s1.2-2.69,2.69-2.69c.02,0,.04,0,.07,0v-62.91l-.03-17.26-.04-18.36c-.44,0-1.64.04-2.81.9-1.52,1.11-1.87,2.76-1.95,3.14-.07,29.5-.14,59-.22,88.51.34,1.47.57,3.53-.22,5.6-.99,2.6-2.81,3.2-2.59,4.93.1.81.53.9,3.02,4.26.79,1.06,1.78,2.28,1.93,2.46.71.9,2.13,2.69,2.45,5.38.02.2.12.37.23.5h0Z"/>
  <polyline fill="#C2CBEC" class="cls-2" points="78.85 18.43 78.85 53.95 78.85 116.96"/>
</svg>